<?xml version="1.0" encoding="UTF-8" standalone="no"?>
<!-- Created with Inkscape (http://www.inkscape.org/) -->

<svg
   xmlns:dc="http://purl.org/dc/elements/1.1/"
   xmlns:cc="http://creativecommons.org/ns#"
   xmlns:rdf="http://www.w3.org/1999/02/22-rdf-syntax-ns#"
   xmlns:svg="http://www.w3.org/2000/svg"
   xmlns="http://www.w3.org/2000/svg"
   xmlns:sodipodi="http://sodipodi.sourceforge.net/DTD/sodipodi-0.dtd"
   xmlns:inkscape="http://www.inkscape.org/namespaces/inkscape"
   width="320"
   height="100.5"
   viewBox="0 0 84.666665 26.590626"
   version="1.1"
   id="svg8"
   inkscape:version="0.92.3 (2405546, 2018-03-11)"
   sodipodi:docname="pc_burguer_logo.svg">
  <defs
     id="defs2" />
  <sodipodi:namedview
     id="base"
     pagecolor="#ffffff"
     bordercolor="#666666"
     borderopacity="1.0"
     inkscape:pageopacity="0.0"
     inkscape:pageshadow="2"
     inkscape:zoom="6.5781367"
     inkscape:cx="160"
     inkscape:cy="50.250018"
     inkscape:document-units="mm"
     inkscape:current-layer="layer1"
     showgrid="false"
     showborder="false"
     inkscape:window-width="2560"
     inkscape:window-height="1029"
     inkscape:window-x="0"
     inkscape:window-y="25"
     inkscape:window-maximized="1"
     units="px" />
  <metadata
     id="metadata5">
    <rdf:RDF>
      <cc:Work
         rdf:about="">
        <dc:format>image/svg+xml</dc:format>
        <dc:type
           rdf:resource="http://purl.org/dc/dcmitype/StillImage" />
        <dc:title></dc:title>
      </cc:Work>
    </rdf:RDF>
  </metadata>
  <g
     inkscape:label="Layer 1"
     inkscape:groupmode="layer"
     id="layer1"
     transform="translate(0,-270.40936)">
    <text
       xml:space="preserve"
       style="font-style:normal;font-weight:normal;font-size:10.58333302px;line-height:1.25;font-family:sans-serif;letter-spacing:0px;word-spacing:0px;fill:#000000;fill-opacity:1;stroke:none;stroke-width:0.26458332"
       x="-226.00311"
       y="-59.216824"
       id="text23"><tspan
         sodipodi:role="line"
         id="tspan21"
         x="-226.00311"
         y="-49.853054"
         style="stroke-width:0.26458332" /></text>
    <g
       id="g850"
       transform="matrix(0.13100379,0,0,0.13100379,72.920963,293.48209)">
      <rect
         y="-176.12265"
         x="-556.6319"
         height="202.976"
         width="646.29059"
         id="rect35"
         style="fill:#49a835;fill-opacity:0.96511625;stroke-width:0.2112886" />
      <g
         transform="translate(-534.32524,-142.18739)"
         id="g15"
         style="fill:#ffffff">
        <path
           style="fill:#ffffff;stroke-width:0.24054256"
           d="m 4.9356341,-21.026767 a 55.004067,15.15418 71.80207 0 0 2.781589,56.985405 55.004067,15.15418 71.80207 0 0 31.5738999,47.520128 55.004067,15.15418 71.80207 0 0 0.10021,-0.0476 A 45.677502,12.584617 71.80207 0 1 13.249452,43.957562 45.677502,12.584617 71.80207 0 1 10.939711,-3.3653534 45.677502,12.584617 71.80207 0 1 37.159587,36.097266 45.677502,12.584617 71.80207 0 1 41.342045,82.046246 55.004067,15.15418 71.80207 0 0 36.509535,26.49336 55.004067,15.15418 71.80207 0 0 4.9356341,-21.026767 Z"
           id="path3743"
           inkscape:connector-curvature="0" />
        <path
           inkscape:connector-curvature="0"
           style="fill:#ffffff;stroke-width:0.99999994"
           d="m 169.5,232.00391 a 202.5,202.5 0 0 0 -202.5,202.5 202.5,202.5 0 0 0 68,151.11132 V 369.55859 a 57.999999,57.999999 0 0 1 -1,-10.55468 57.999999,57.999999 0 0 1 58,-58 57.999999,57.999999 0 0 1 58,58 57.999999,57.999999 0 0 1 -58,58 57.999999,57.999999 0 0 1 -47,-24.13868 v 201.04493 a 202.5,202.5 0 0 0 124.5,43.09375 202.5,202.5 0 0 0 202.5,-202.5 202.5,202.5 0 0 0 -202.5,-202.5 z m 127.13086,62.14062 a 140.36069,140.36069 0 0 1 13.29492,0.66602 140.36071,140.36071 0 0 0 -127.8457,139.69336 140.36071,140.36071 0 0 0 127.06445,139.69531 140.36069,140.36069 0 0 1 -12.51367,0.66601 A 140.36069,140.36069 0 0 1 156.27148,434.50391 140.36069,140.36069 0 0 1 296.63086,294.14453 Z"
           id="path12"
           transform="scale(0.26458333)" />
        <path
           inkscape:connector-curvature="0"
           style="fill:#ffffff;stroke-width:0.24054256"
           d="M 52.91667,-33.435125 A 15.154181,55.004068 0 0 0 37.76255,21.568752 15.154181,55.004068 0 0 0 52.91667,76.572617 15.154181,55.004068 0 0 0 53.02674,76.558717 12.584618,45.677503 0 0 1 40.52001,30.895363 12.584618,45.677503 0 0 1 53.10477,-14.781952 12.584618,45.677503 0 0 1 65.68901,30.895363 12.584618,45.677503 0 0 1 55.31239,75.852297 15.154181,55.004068 0 0 0 68.07078,21.5688 15.154181,55.004068 0 0 0 52.91667,-33.435077 Z"
           id="path3743-5" />
        <circle
           style="fill:#ffffff;stroke-width:0.19689922"
           id="path3792"
           cx="22.450632"
           cy="94.944229"
           r="11.973675" />
      </g>
      <text
         id="text19"
         y="-42.401062"
         x="-437.66495"
         style="font-style:normal;font-variant:normal;font-weight:bold;font-stretch:normal;font-size:64.93071747px;line-height:1.25;font-family:'Liberation Serif';-inkscape-font-specification:'Liberation Serif Bold';letter-spacing:0px;word-spacing:0px;fill:#ffffff;fill-opacity:1;stroke:none;stroke-width:0.33818084"
         xml:space="preserve"><tspan
           style="font-style:normal;font-variant:normal;font-weight:bold;font-stretch:normal;font-size:64.93071747px;font-family:'Liberation Serif';-inkscape-font-specification:'Liberation Serif Bold';fill:#ffffff;fill-opacity:1;stroke-width:0.33818084"
           y="-42.401062"
           x="-437.66495"
           id="tspan17"
           sodipodi:role="line">PEDRO COELHO</tspan></text>
      <text
         id="text27"
         y="25.756542"
         x="-436.07755"
         style="font-style:normal;font-variant:normal;font-weight:bold;font-stretch:normal;font-size:61.10030365px;line-height:1.25;font-family:'Liberation Serif';-inkscape-font-specification:'Liberation Serif Bold';letter-spacing:0px;word-spacing:0px;fill:#ffffff;fill-opacity:1;stroke:none;stroke-width:0.31823075"
         xml:space="preserve"><tspan
           style="font-style:normal;font-variant:normal;font-weight:bold;font-stretch:normal;font-size:61.10030365px;font-family:'Liberation Serif';-inkscape-font-specification:'Liberation Serif Bold';fill:#ffffff;fill-opacity:1;stroke-width:0.31823075"
           y="25.756542"
           x="-436.07755"
           id="tspan25"
           sodipodi:role="line">HAMBURGUERIA</tspan></text>
    </g>
  </g>
</svg>
