<?xml version="1.0" encoding="UTF-8" standalone="no"?>
<!-- Created with Inkscape (http://www.inkscape.org/) -->

<svg
   xmlns:dc="http://purl.org/dc/elements/1.1/"
   xmlns:cc="http://creativecommons.org/ns#"
   xmlns:rdf="http://www.w3.org/1999/02/22-rdf-syntax-ns#"
   xmlns:svg="http://www.w3.org/2000/svg"
   xmlns="http://www.w3.org/2000/svg"
   xmlns:sodipodi="http://sodipodi.sourceforge.net/DTD/sodipodi-0.dtd"
   xmlns:inkscape="http://www.inkscape.org/namespaces/inkscape"
   width="320"
   height="100.5"
   viewBox="0 0 84.666665 26.590626"
   version="1.1"
   id="svg8"
   inkscape:version="0.92.3 (2405546, 2018-03-11)"
   sodipodi:docname="pc_burguer_logo_roxo.svg">
  <defs
     id="defs2" />
  <sodipodi:namedview
     id="base"
     pagecolor="#ffffff"
     bordercolor="#666666"
     borderopacity="1.0"
     inkscape:pageopacity="0.0"
     inkscape:pageshadow="2"
     inkscape:zoom="6.6031365"
     inkscape:cx="160"
     inkscape:cy="50.249988"
     inkscape:document-units="mm"
     inkscape:current-layer="layer1"
     showgrid="false"
     showborder="false"
     inkscape:window-width="2560"
     inkscape:window-height="1029"
     inkscape:window-x="0"
     inkscape:window-y="25"
     inkscape:window-maximized="1"
     units="px" />
  <metadata
     id="metadata5">
    <rdf:RDF>
      <cc:Work
         rdf:about="">
        <dc:format>image/svg+xml</dc:format>
        <dc:type
           rdf:resource="http://purl.org/dc/dcmitype/StillImage" />
        <dc:title></dc:title>
      </cc:Work>
    </rdf:RDF>
  </metadata>
  <g
     inkscape:label="Layer 1"
     inkscape:groupmode="layer"
     id="layer1"
     transform="translate(0,-270.40936)">
    <g
       id="g889">
      <text
         id="text23"
         y="-59.216824"
         x="-226.00311"
         style="font-style:normal;font-weight:normal;font-size:10.58333302px;line-height:1.25;font-family:'Liberation Serif';letter-spacing:0px;word-spacing:0px;fill:#000000;fill-opacity:1;stroke:none;stroke-width:0.26458332;-inkscape-font-specification:'Liberation Serif';font-stretch:normal;font-variant:normal;"
         xml:space="preserve"><tspan
           style="stroke-width:0.26458332;-inkscape-font-specification:'Liberation Serif';font-family:'Liberation Serif';font-weight:normal;font-style:normal;font-stretch:normal;font-variant:normal;"
           y="-49.853054"
           x="-226.00311"
           id="tspan21"
           sodipodi:role="line" /></text>
      <rect
         y="270.40936"
         x="7.4861695e-05"
         height="26.590626"
         width="84.666519"
         id="rect35"
         style="fill:#49a835;fill-opacity:0.96511625;stroke-width:0.02767961" />
      <g
         transform="matrix(0.13100379,0,0,0.13100379,2.9223315,274.855)"
         id="g15"
         style="fill:#5c0b47;fill-opacity:1">
        <path
           style="fill:#5c0b47;stroke-width:0.24054256;fill-opacity:1"
           d="m 4.9356341,-21.026767 a 55.004067,15.15418 71.80207 0 0 2.781589,56.985405 55.004067,15.15418 71.80207 0 0 31.5738999,47.520128 55.004067,15.15418 71.80207 0 0 0.10021,-0.0476 A 45.677502,12.584617 71.80207 0 1 13.249452,43.957562 45.677502,12.584617 71.80207 0 1 10.939711,-3.3653534 45.677502,12.584617 71.80207 0 1 37.159587,36.097266 45.677502,12.584617 71.80207 0 1 41.342045,82.046246 55.004067,15.15418 71.80207 0 0 36.509535,26.49336 55.004067,15.15418 71.80207 0 0 4.9356341,-21.026767 Z"
           id="path3743"
           inkscape:connector-curvature="0" />
        <path
           inkscape:connector-curvature="0"
           style="fill:#5c0b47;stroke-width:0.99999994;fill-opacity:1"
           d="m 169.5,232.00391 a 202.5,202.5 0 0 0 -202.5,202.5 202.5,202.5 0 0 0 68,151.11132 V 369.55859 a 57.999999,57.999999 0 0 1 -1,-10.55468 57.999999,57.999999 0 0 1 58,-58 57.999999,57.999999 0 0 1 58,58 57.999999,57.999999 0 0 1 -58,58 57.999999,57.999999 0 0 1 -47,-24.13868 v 201.04493 a 202.5,202.5 0 0 0 124.5,43.09375 202.5,202.5 0 0 0 202.5,-202.5 202.5,202.5 0 0 0 -202.5,-202.5 z m 127.13086,62.14062 a 140.36069,140.36069 0 0 1 13.29492,0.66602 140.36071,140.36071 0 0 0 -127.8457,139.69336 140.36071,140.36071 0 0 0 127.06445,139.69531 140.36069,140.36069 0 0 1 -12.51367,0.66601 A 140.36069,140.36069 0 0 1 156.27148,434.50391 140.36069,140.36069 0 0 1 296.63086,294.14453 Z"
           id="path12"
           transform="scale(0.26458333)" />
        <path
           inkscape:connector-curvature="0"
           style="fill:#5c0b47;stroke-width:0.24054256;fill-opacity:1"
           d="M 52.91667,-33.435125 A 15.154181,55.004068 0 0 0 37.76255,21.568752 15.154181,55.004068 0 0 0 52.91667,76.572617 15.154181,55.004068 0 0 0 53.02674,76.558717 12.584618,45.677503 0 0 1 40.52001,30.895363 12.584618,45.677503 0 0 1 53.10477,-14.781952 12.584618,45.677503 0 0 1 65.68901,30.895363 12.584618,45.677503 0 0 1 55.31239,75.852297 15.154181,55.004068 0 0 0 68.07078,21.5688 15.154181,55.004068 0 0 0 52.91667,-33.435077 Z"
           id="path3743-5" />
        <circle
           style="fill:#5c0b47;stroke-width:0.19689922;fill-opacity:1"
           id="path3792"
           cx="22.450632"
           cy="94.944229"
           r="11.973675" />
      </g>
      <text
         id="text19"
         y="277.40356"
         x="15.585196"
         style="font-style:normal;font-variant:normal;font-weight:bold;font-stretch:normal;font-size:8.50617027px;line-height:1.25;font-family:'Liberation Serif';-inkscape-font-specification:'Liberation Serif Bold';letter-spacing:0px;word-spacing:0px;fill:#5c0b47;fill-opacity:1;stroke:none;stroke-width:0.04430297"
         xml:space="preserve"><tspan
           style="font-style:normal;font-variant:normal;font-weight:bold;font-stretch:normal;font-size:8.50617027px;font-family:'Liberation Serif';-inkscape-font-specification:'Liberation Serif Bold';fill:#5c0b47;fill-opacity:1;stroke-width:0.04430297"
           y="277.40356"
           x="15.585196"
           id="tspan17"
           sodipodi:role="line">PEDRO COELHO</tspan></text>
      <text
         id="text27"
         y="285.83292"
         x="15.793154"
         style="font-style:normal;font-variant:normal;font-weight:bold;font-stretch:normal;font-size:8.00437164px;line-height:1.25;font-family:'Liberation Serif';-inkscape-font-specification:'Liberation Serif Bold';letter-spacing:0px;word-spacing:0px;fill:#5c0b47;fill-opacity:1;stroke:none;stroke-width:0.04168943"
         xml:space="preserve"><tspan
           style="font-style:normal;font-variant:normal;font-weight:bold;font-stretch:normal;font-size:8.00437164px;font-family:'Liberation Serif';-inkscape-font-specification:'Liberation Serif Bold';fill:#5c0b47;fill-opacity:1;stroke-width:0.04168943"
           y="285.83292"
           x="15.793154"
           id="tspan25"
           sodipodi:role="line">HAMBURGUERIA</tspan></text>
      <text
         id="text859"
         y="295.46695"
         x="25.590117"
         style="font-style:normal;font-variant:normal;font-weight:bold;font-stretch:normal;font-size:11.28888893px;line-height:1.25;font-family:'Liberation Serif';-inkscape-font-specification:'Liberation Serif Bold';letter-spacing:0px;word-spacing:0px;fill:#5c0b47;fill-opacity:1;stroke:none;stroke-width:0.26458332"
         xml:space="preserve"><tspan
           style="font-style:normal;font-variant:normal;font-weight:bold;font-stretch:normal;font-size:11.28888893px;font-family:'Liberation Serif';-inkscape-font-specification:'Liberation Serif Bold';fill:#5c0b47;fill-opacity:1;stroke-width:0.26458332"
           y="295.46695"
           x="25.590117"
           id="tspan857"
           sodipodi:role="line">VEGANA</tspan></text>
    </g>
  </g>
</svg>
